<mxfile host="app.diagrams.net" modified="2024-02-23T08:43:07.086Z" agent="Mozilla/5.0 (Windows NT 10.0; Win64; x64) AppleWebKit/537.36 (KHTML, like Gecko) Chrome/121.0.0.0 Safari/537.36 Edg/121.0.0.0" etag="DCRIkh7FauNCWHIbP4QI" version="23.1.6" type="device">
  <diagram name="Page-1" id="ckTXhisIsUWDXB_0tXjH">
    <mxGraphModel dx="1766" dy="441" grid="0" gridSize="10" guides="1" tooltips="1" connect="1" arrows="1" fold="1" page="1" pageScale="1" pageWidth="1100" pageHeight="850" math="0" shadow="0">
      <root>
        <mxCell id="0" />
        <mxCell id="1" parent="0" />
        <mxCell id="zmRX58M7laVgkmosru7D-17" value="" style="group" parent="1" vertex="1" connectable="0">
          <mxGeometry x="-848" y="56" width="754" height="150" as="geometry" />
        </mxCell>
        <mxCell id="zmRX58M7laVgkmosru7D-11" value="Local" style="rounded=1;whiteSpace=wrap;html=1;labelPosition=center;verticalLabelPosition=top;align=center;verticalAlign=bottom;fontStyle=1;fontSize=13;strokeWidth=2;fillColor=#fefff0;strokeColor=#6B9454;fontColor=#6B9454;" parent="zmRX58M7laVgkmosru7D-17" vertex="1">
          <mxGeometry width="450" height="150" as="geometry" />
        </mxCell>
        <mxCell id="zmRX58M7laVgkmosru7D-16" style="edgeStyle=orthogonalEdgeStyle;rounded=0;orthogonalLoop=1;jettySize=auto;html=1;exitX=0;exitY=0.75;exitDx=0;exitDy=0;entryX=1;entryY=0.75;entryDx=0;entryDy=0;strokeWidth=2;endArrow=block;endFill=1;" parent="zmRX58M7laVgkmosru7D-17" source="zmRX58M7laVgkmosru7D-9" target="zmRX58M7laVgkmosru7D-11" edge="1">
          <mxGeometry relative="1" as="geometry" />
        </mxCell>
        <mxCell id="zmRX58M7laVgkmosru7D-9" value="Remote" style="rounded=1;whiteSpace=wrap;html=1;labelPosition=center;verticalLabelPosition=top;align=center;verticalAlign=bottom;fontStyle=1;fontSize=13;strokeWidth=2;fillColor=#dae8fc;strokeColor=#6c8ebf;fontColor=#6C8EBF;" parent="zmRX58M7laVgkmosru7D-17" vertex="1">
          <mxGeometry x="504" width="250" height="150" as="geometry" />
        </mxCell>
        <mxCell id="zmRX58M7laVgkmosru7D-15" style="edgeStyle=orthogonalEdgeStyle;rounded=0;orthogonalLoop=1;jettySize=auto;html=1;exitX=1;exitY=0.25;exitDx=0;exitDy=0;entryX=0;entryY=0.25;entryDx=0;entryDy=0;strokeWidth=2;endArrow=block;endFill=1;" parent="zmRX58M7laVgkmosru7D-17" source="zmRX58M7laVgkmosru7D-11" target="zmRX58M7laVgkmosru7D-9" edge="1">
          <mxGeometry relative="1" as="geometry" />
        </mxCell>
        <mxCell id="zmRX58M7laVgkmosru7D-1" value="Working directory" style="rounded=1;whiteSpace=wrap;html=1;strokeColor=#6c8ebf;glass=0;fillStyle=solid;fillColor=#dae8fc;fontStyle=1" parent="zmRX58M7laVgkmosru7D-17" vertex="1">
          <mxGeometry x="25" y="45" width="120" height="60" as="geometry" />
        </mxCell>
        <mxCell id="zmRX58M7laVgkmosru7D-2" value="Staging area" style="rounded=1;whiteSpace=wrap;html=1;fillColor=#ffe6cc;strokeColor=#d79b00;fontStyle=1" parent="zmRX58M7laVgkmosru7D-17" vertex="1">
          <mxGeometry x="165" y="45" width="120" height="60" as="geometry" />
        </mxCell>
        <mxCell id="zmRX58M7laVgkmosru7D-7" style="edgeStyle=orthogonalEdgeStyle;rounded=0;orthogonalLoop=1;jettySize=auto;html=1;exitX=1;exitY=0.5;exitDx=0;exitDy=0;entryX=0;entryY=0.5;entryDx=0;entryDy=0;endArrow=block;endFill=1;strokeWidth=2;" parent="zmRX58M7laVgkmosru7D-17" source="zmRX58M7laVgkmosru7D-1" target="zmRX58M7laVgkmosru7D-2" edge="1">
          <mxGeometry relative="1" as="geometry" />
        </mxCell>
        <mxCell id="zmRX58M7laVgkmosru7D-3" value="Repository" style="rounded=1;whiteSpace=wrap;html=1;fillColor=#d5e8d4;strokeColor=#82b366;fontStyle=1" parent="zmRX58M7laVgkmosru7D-17" vertex="1">
          <mxGeometry x="305" y="45" width="120" height="60" as="geometry" />
        </mxCell>
        <mxCell id="zmRX58M7laVgkmosru7D-8" style="edgeStyle=orthogonalEdgeStyle;rounded=0;orthogonalLoop=1;jettySize=auto;html=1;exitX=1;exitY=0.5;exitDx=0;exitDy=0;entryX=0;entryY=0.5;entryDx=0;entryDy=0;endArrow=block;endFill=1;strokeWidth=2;" parent="zmRX58M7laVgkmosru7D-17" source="zmRX58M7laVgkmosru7D-2" target="zmRX58M7laVgkmosru7D-3" edge="1">
          <mxGeometry relative="1" as="geometry" />
        </mxCell>
        <mxCell id="zmRX58M7laVgkmosru7D-13" value="" style="shape=image;verticalLabelPosition=bottom;labelBackgroundColor=default;verticalAlign=top;aspect=fixed;imageAspect=0;image=data:image/jpeg,/9j/4AAQSkZJRgABAQAAAQABAAD/2wCEAAkGBxMSEhUTExIWFhUXGCAXFxYYGBoYFxgaFx4XGxcYGxcaHyghGRomHhcXITEhJSkrLi4uHh8zOjMsNygtMCsBCgoKDg0OGBAQGy0mICUtKy0tLS0tLS0tLS0uLS0vLS0tLS0tLS0tLy0rLS0tLS0tLS0tLS0tLS0tKy0tMS0rLf/AABEIAIEBhgMBIgACEQEDEQH/xAAcAAEAAgIDAQAAAAAAAAAAAAAABwgFBgECBAP/xABTEAABAwIDAwUIChECBQUAAAABAAIDBBEFEiEGBzETQVFhcQgUIjWBkaGyMjRCcnN0orHR8BUXI1JTVGKCg5KTs8HCw9LhM2MWJCWj4xhDVaTT/8QAGQEBAAMBAQAAAAAAAAAAAAAAAAECAwQF/8QAJBEBAAICAgEEAgMAAAAAAAAAAAECAxEhMRIEE0FRYZEigcH/2gAMAwEAAhEDEQA/AJxREQEREGP2hxMUtLNUHXko3Pt0loNh5TYeVQTh++3EGEGWOCUc4yuYeuzgSB2kFSnvgeRhNTbnAB7C4XVYVnedJhZjZHelQ1xbGXchMdBHIQA49DZPYu7ND1LeVS0hZwbYV4hEArJhG0WDQ+xtzDN7L06JGT7NLZulaOJA7SviMQhvblY79Gdv0qndTO6Q3ke556XuLj8q6+HJt6Ap9yDS6LJWng4HsN10q6pkTHSSPaxjRdznENaAOJJOgCpxTTvjN43uYelji0+iy9tfj1VPG2KaolkY03ax7y4A9OvE9qj3INJq2o3108RLKOM1DuGdxLIu0aZn83QD0rAbM74KyaugjnbCIZJGxuDGEEcocrSHFx4OLSeq6iNffD3WliI5pGEdocP8KPOZk0uUi4C5WqBERAREQEREBERAREQEREBERAREQEREBERAREQEREBERAREQEREBERAREQEREBERBqW9WphZhdSJn5Q9hYzS5Mh1YAO0eQXKq2FIW+zaM1NeYA77lTeABfQyG2d3bwb1WPSo9WN53KYERcKiXKJ9fr9dU+dARFx8yDlejDahsc0UjmlzWSMe5g0Lg1wJbfmJAt1Lz/X6/XRFIuFgWMRVkDKiF2aN4uOkHnaRzOBuCF71Am4HaIx1L6Fx8CYGSMX4SMF3gDrYCfzetT2t4ncKiIikEREBERAREQEREBERAREQEREBERAREQEREBERAREQEREBERAREQEREBERAREQU1r6kyyySnjJI557XuLj86+AHMvtXQcnLJHzse5h/NcR/Are9z2zjKmodUSDMyAjK08DIbkEjnsBftsua063Mr1r5Tp8tnd1tVUMEkrhA06gEXfbpI4C/1sth+0yz8af+qz6FLlPEDdztGtFysdTbQ08s/e/JPif7gvaGh3RoDcXGouFSPOY3w6fbrHGt67RZJubd7mqv2tH0hfAbnZvxgfqjy+6UyWt6EWXvWhf2afSIotzbj7KqI7Gj6V6PtNM/G3/qs+hSqvNiuOQ0lg+J8h0zlrQWszagEkgXPMP8K1LXt9E4q9RG0I7S7sKqmY6SM8uxupDRZ4HvfdLQx9SrcPMckbJYjdjxceXq5ufTmsoC3u7OtpapssbQI5wXWA0bI0jMOjW4PnWkTMT4z2wvSNeUMPu6mLMUo3A2+7AeR12n0Eq16qbu+bfE6If77fnVsl0U6YSIiK6BEWn709rfsbQukZblpDycI6HG5LrdDQCe2w50GO3hb1KbDSYYwJ6kcYwbNZ79w4H8nj2KF8W3t4rOT/AMwIh97E0NAvzXN3ecrSZ5nPc57iXOcS5zjqSSbkk9JK9mCYJUVknJU0TpH9DRwHSTwA6yg97ttcRJv37Pf4R3zL30O8zFYiC2tkNuZ+V4+UFnqbcdijhdxp2HodISfkNcPSvlW7k8VjF2thl95J/eGoJE3Pbx6vEpn09RGw5I+U5ZgLeBa0Nc3gScxNxbhwUpVdUyJjpJHBjGAuc5xsGgcSSow3D7KT0UVS+pidFJI9rA11r5WAm4tzEvPmWY33skOET8nfQsL7feBwzeTpQYqbfphwlyCOdzPwoaAO3KTm9CkXB8VhqoWTwPD43i7XD0gjiCDoQdQVSlWJ7nGOQUM5dfIZvAvw0aA+3lsglpFqu83aCWgw+Wpgy8oxzAM4u3wntadARzFQp9vPE/vab9m7+9ToWVRatuz2glr8PiqZw0SPLwcgIb4L3NGhJ5gtpUCDdp99dVTVdRTspoC2KV0bS7PchpIBNncdFk93W9qpxCtZTS08LGua45mZ8wLRccSQob3g+M634xJ6xWwbi/G8XvH+qki0a8WN1pgp5pgATHG54B4EtaSAfMvasRtf7Rq/gJPUckiEPt+1n4rT/wDc/uUh7pNv5sW755aKOPkeTy5M2vKcpe+Ynhk9Kq+pw7mXjX/of66Cc0REBERAWlb1ds5cKpo5oo2SOfLydnk2AyudfQi50W6qI+6R9o0/xj+R6DVft+1n4rT/APc/uU1bE426toYKp7WsdK25a25aCCW6X1tpdU4Vs90Xiej94fXeg3BERAREQdJZWtF3ODR0k2HnK8gxeAmzZA4jmZd5+TdK9jczT3vyrraGzPB/OcdPJdcF1S7g2KPrcXSH9UZR8pAdizPvZT2RSf2rj7LN/Bzfsn/QuRRzH2dQR8GxjR8vOfSuW4b0zTHtfb1QAgrJvMw/kcSqLNc1sr+WbmaWk8pq7Q/lZlv24mQd7VLfdCYO8hYANe1pWw72tge/KcTQZ31EANmlxcZGcXMAJ9lfUdJ051FG7HaVtDVkTHLFKOTeSD4DgfBcegA3B7epc+avE6a4rRFo2n/E43uo6hrCQ/IS23HQX08xUcYTLLPWQuLnPeZGnMdTZpBPyQVJtNPlIc2xBHNwI7f4riKGBjnPigayR3snhtjrqeCyrevjG56d1LzTy43t2m9k7t/iV0XAH8OZY8cry3KcozvbJwtz/fZujrusO5mUxDIj6PnUf7ZPlZVzsLnBj3Nfl9y4ZQGm3Pa1vJ1Lf7fW3WuZYYZA0TQtkyexJbe3Vqr47RzElbeE+WtvDsnG5uHx5gRckt96SSCOgW1Udb+JByVI22pkeR2BoB9YKWKibORpYDQCyr1vX2gbV1mWNwdHA3k2uHBziSZCOkcG+RaRMTfjqIc+Wf4zvuZ243Q0ufFIHkOLYQ+V2VpdwaWt0A++cD5FY/7LN/Bzfsn/AELQNzuxJpqUzzh8c0+uUOcxzYx7AOA5zcusdRcKQXYd0SzDsff1gQuysahxuG4sw+5lHbFJ/ajsYgFs0gZfhnBZ64CGjlHsKh36RjHD5IafSgNS3iIpB1ZozbsOYHzhWHrhma8XY4OHS0gjzhV87ozFS+shpwfBiizn30hPEdQaPOp5o2jOSafk329nZhuOjM0386rBvolzYzV9RY3zRRj57qBpQCt3u82Ujw2jZEGjlXAOmfYXc88QTzgXsP8AKq/sNTcpiNIziDPHcdQcCfQFcdARRdt5vd+xtY+l7z5XK1pz8rkvmANsuQ8L9K13/wBQZ/8Ajv8A7H/iQTmvDjdfBBA+Spc1sIFnl4u0h2liOe97WURUO/zlJWR/Y+we8Nvy97ZiBe3J68eC3HfX4oqPzee3umoNEmwfZV0vKd8lovfkw9+Ts4XA6rqW9kaujkpm94Fne7CWNDBZoI1It0+FcnnuqbKeN25tszXc2lR1f+23nQZ3fnjVMcMmgE8Zmc5low8F/gvaT4I1GmqrUiILA7pNucPpMMhhnqWMka55LSDcZnuI4DoIUm7P7RU1a1z6aZsrWnK4i+hIuOKpirAdzX7Wq/hW+qgh/eF4zrfjEnrFbBuL8bxe8f6q1/eD4zrfjEnrFYzB8WmpZRNBIY5G3AcLXF9DxSRdZYja/wBo1fwEnqOVYvtn4t+PSeZn9q+dVvHxSRjo31sjmvaWuFmahwsR7HoQaopw7mXjX/of66g9Th3MvGv/AEP9dBKGI7d4dTyOimq42SMNnNJNweNjp1ph23eHTyNiirI3yPNmtBNyegacVW/e744rPfj1GLrum8b0fwn8rlItqsBi+2lBSyGKeqjjkABLXE3seHMs+qvb9/G8vvGeqgnqk3g4ZLIyOOsic97gxrQTcucbNA04kkBaV3SPtGn+MfyPUKbDeMqH41D+8Ypr7pH2jT/GP5HqBXhWQ2G25oKDCKMVFQ1r8h+5t8N+r3+5bcjyqt6+1NSvkNo2OeehrS4+YILFHfvh2a3JVVr+yyR27f8AUv6Fuey+2lFiAPe04c4C5jN2vA6cp1t1qoVTSvjNpGOYehzS0+YrvhtfJTysmieWSMcHNcOII/hzW50F2kWB2H2gGIUMNSNC9tnjoe0lrx2XBt1WXKDOoiICxe0G0NNQxiSqlEbHOygkOJJ42AaCToDzLKLH45hsNTHyU8LZWOIu1wvbrHQR0hNbRM6jbrguPU1W3PTzMkHHwTqO1p1HlC1HbvdZTV5dNGeQqDxcBdjz+Wzp/KFj2rRtq9npcDqopqeZzaaRwY2VwdI6l8LM5mUEXY4XuOcA89ry/sltAyupmTM0J0c2xFj0i4BLTxB5wU1wb5Q9R0+O4P8AczB3zTNGgaTK0D8hzbSM48CLdSylNvhpgctRTzxPHsho6x7CQ4eUKZ1HO+jaJlHTNY2KJ88xIYXsa8RtHspMrgbngAOnXmWVsVJ5lrXLaOnji3o4YRrO9vUYZebsaV5Ttzg9/bUmW+bk8lRyd73vlycL83DqUDiPrd505PrPnKw9qv5ax6i8LCu3n4X+MOPZDN/Fix1TveoBpGyeVx4ANy3v7439Cgp0X5TvOp/3H7Sx1MTqaSKJtRC0HMxjG8rHoMxAA8IGwPaDzq1cNJVnPdr+IYpjeKjkqWjfTwONnOddjiOfNI+2UdTBfrK2fYTdDDSOZPVubPM3VrB/osI4EA6vI5iQBwNgVJ6LorStemVrTbsREVlRERAVT98cZbjNYD98w/rRxkfOrYKtfdCYXyWJCYDSeJpv0uj8A/JDEGobv5wzEqNx/DsH6zg3+KuGqPwSuY5r2mzmkOaRxBGoPnVy9l8bjraWKpjItI0Ej713umnrBuEEA77cFqZMWlfHTzPaWR2c2NzgbNAOoFuIUbVlHJE7LLG+N1r5XtLTbpsRwV3FW3uifGjPizPXlQR3gvtiH4VnrBWc32eKKj8z1mqseC+2IfhWesFZzfZ4oqPzPWanwKrKync/xh2Eua4AgzvBB1BBay4IVa1ZbuevFR+Hf80aDpvpwOmiwmZ8dPExwdGA5rGtI8No0IHQSq2K0m/XxPP76P8AeMVW1Miym5bA6aXCYXyU8T3F0l3OY0uNpHWuSNbKRqHD4oQRFEyME3IY0NBPSbLSdxfieD30n7x639QKebwvGdb8Yk9YrzbLbPS4hUNpoSwPcCQXkhvgi51AJ9C9O8HxnW/GJPWK2DcX43i94/1UkZI7iMS/C0v7ST/8158R3KYhDFJK6SmLY2Oe6z33s0EmwMfHRWZWI2v9o1fwEnqOSRTNTh3MvGv/AEP9dQepw7mXjX/of66CP97vjis9+PUYuu6bxvR/CfyuXbe744rPfj1GLrum8b0fwn8rlPyLaqr2/fxvL7xnqq0Kq9v38by+8Zz/AJI8ygazsN4yofjUP7ximvukfaNP8Y/keoU2G8ZUPxqH94xTX3SPtGn+MfyPQV4Vtd1NHGzC6QsY1pdEHOIABcTqSTzlVKVvN2Piqi+Aagxe+XZ+Kqw2Z7m/dIG8rG4eyGX2Qvzgi+nZ0Kq6uJt/IG4bWE8OQf6WkKnaCxHc4VRdQzxngye4/Pa2/qrhfHuax/ytUf8Aeb6v+UQTEiIgIiIMbtHgsdbTSU0vsZG2uOLT7lw6wbFV5nqcQwOoeyTlC8RiOnlzu5Esa4uFm2LZG6uuw2LbmxCswvNX0EU7CyaNkjDxa9ocPMURraEn755vCaHN/wBK7ZDAcxl08FzOUsGcfCUd7UbSzV8okncSWsDbEgtBOry0ADK0nm1OnEqxkm7PCi7N3lGOoFwb+qHW9ChjfNhMFLXtjp4mRM5FrsrAACS59z26BVtvUpiGu4vgXIUdFUFxLqrlTl0yhsZjDLW1JOZxOvRoOfI0dHGcEqJSxplbWMa1+mYNLG3be17alZDbs/8AS8E+Bm6PvoF5qAf9AqePt5nR+Daq6iJ/pLDYHgffFPWygnPTRslDdLOaXZZL9jfC06D0rZtxkhGLMA4OhkB6xZp+doXy3be1cZ+IO+aRdtyHjaL4OT1UiOhZVERaIEREBERAUe76tknV9DniF5qc8o0W1e23hsHXaxHWLc6kJEFHSFs2xW3VXhbiYHAscbvifcscRz2B8F1tLhTJvE3OR1b31FG4QzO8J8Z/0nu1uRb2DiePEdShfF9hMRpjaWjlHW0co39ZlwgkqPugn28LD2l3SJyB5jGfnUbbfbWvxSpFQ+JsZEYjDWku0aXG5J5/CKwkmHzN0dFID1scP4L10WztXMQI6WZ5PC0bvnsg+GC+2IfhWesFZzfX4oqPzfWaow2J3MVr5WS1ZFOxrg/LcPkdYg2s0kN8pv1KWd7OGy1OFzxQxmSQ5SGN1Js4E2HOUFTFZbuevFZ+Hf8AMxQd/wAAYp+IVH7MqftyOEz0uHGOoifE/lnuyvFjYhljbo0KD7b7adz8HqcouWljj2NkYXHyC5VVldvEaJk8T4ZBdkjSxw6Q4WKq/tputraGR3JxPnp73ZKwZjboewatcOyx5uoNo3S706ehpe9Ktr2hjnOjkaMws83LXN4g3LjcdPNbWYdktr6XEmyPpnOIjIa7M0t1IuLAqo5wqe+XkJb9HJuv5rKfe55wuaCmqeWhkjzyNLc7S3MA03IupELbwvGdb8Yk9YrYNxfjeL3j/VXG22xOIy4hVyR0U7mOne5rgwkOBcSCCOayze57ZKup8TilmpJo4w113uYQ0XGmpUSLErEbX+0av4CT1HLLrGbTQOko6ljGlznQva1o4klrgAPKokUvU4dzLxr/AND/AF1Gn/AGJ/iFR+zKl7uftn6qk7875p5Ic/JZM7cubLy2a1+jMPOpEY75IHMxiqzAjM5rm35wWN17NCtd2YxY0lXBUhubkpA/LwuAdRfrF1P2+Tdw/EMtTSgGoY3K5hIHKNGosToHC54nUKAK7Z+qhcWy00zCOOaNw9NrILDP33YWGZgZi618gj1v0XJy+lQVt/tMMSrX1IjMbXANDS7MbNFgSbDU8bc3WsZRYJUzENip5XkmwyscdfMtwi3QYl3tJUPiyuaAWQDwpX3IB0abNsCTrrpwQa3sN4yofjUP7ximvukfaNP8Y/keo02O2HxGOvo3vop2sZURPc4sIDWte0kk9AAKlrfzgtRV0cDKeF8rmz5nNYLkDI8Xt2kIK0qdN3u+Gjp6SGlqY5IzCwMztGdrgOBsNQeqx7VH+AbssQnqI4pKaaFjiQ6VzDlYACbm9uiy+G0e7jEaNxD6Z72A2EkQztcOY+Dq3sIBQb9vR3t09VSOpaMPdyukkjm5QGggloB1JNrKFF6xhk17cjJfhbI6/mst12E3WVlbKx00T4KYEF73jK5w52sadSTwvaw9BCXdwuGmHCmvcLGaR0moscujG+Q5LjqK5W/0dMyKNkbGhrGNDWgcAGiwCIPsiIgIiIC6vkA1JsvhXVOQacTwWEkeXG5JPD51tjxTbly5vUxjnxjtlpcTaOAJ+ZV934z58RabW+4N9Z6lfaPF+9IHTcjJLY2DI23cS48T0N6SoXqcMr8Xq3SugdHnsA54LI42DRrQXAF1hfhxN+F1ObHER41jcqYM17T5Xnh320lJw7BxzNhltoPvor8OwLzUkh+wk7eY1rLiw/BhZze7QMpo8Op2HSKKRvCxNjEM3lIJ6lhaWB32Dnfbwe/W83QxoJ85AWNq6vMfhtS+6Vn7n/Zfbd/KRT4sBz0Tr/K+kr6bm5smKxO/25B8lerc7CyWargfwlp8tuctzWdbszArG1GztfhdU2WOMycm67JGNL2uHCzmt1bcHUFK0nxrbW4+Uzf+Vq71Px+lk48VaeLSOzrXsina72JutH2Wxvv2ATchJCb5SyRp0It7EkDMzXQ2HP0LLt8v1+vlXVOCto3Djj1WSk6ty2VF4MNqy7wXcQOPSveua1ZrOpd+PJF6+UCIiquIiICIiDo6Jp4tB8gXYC3BcogIiICIiAiIg65BxsLrsiICIiAiIgIiIC4c0HiLrlEHVrAOAA7F2REBERAREQdeTF72F+xdkRAREQEREBERB5a+mzt0tccL+n5lhHxlpsRbhzHp+vatlXSWJrhYi62x5prxPTlz+m9yfKO2uD6eY9P17Fiq2MNd1ceB07FtcmFtPAkelYvEMCkcbtIIt0kH6+VduHPTy7cN/TZI+EVYzsDLVVDpqmsLmuvkDWWc1gJswE6NsOex6VvNPhsDaI04ibyIaYzHY2IPG/Pe5v031WUqcGmyt8HgDfXpsurcLl5MjIb5r2uegc6tFcMcxrmeeS85raiYnj8Izod3j4Kls9JVmPIc3hMJcG+6bmFgQQSNVvtJHmeO250PCyyNJg83hXbbwbDXj5F9qHApQ4OdlHVmJPDqUxbDji3jJaubJrcT+gfRzFAOr0FZWPChzknsXrgpms4Dy8SuW2esdNKekvPfDy4bRlvhO49HR/lZBEXLa02ncvRx44pXUCIiquIiICIiAiIgIiICIiAiIgIiICIiAiIgIiICIiAiIgIiICIiAiIgIiICIiAiIgIiICIiAiIgIiICIiAiIgIiICIiAiIgIiICIiAiIgIiICIiAiIgIiICIiAiIgIiICIiAiIgIiICIiD/2Q==;" parent="zmRX58M7laVgkmosru7D-17" vertex="1">
          <mxGeometry x="522" y="37" width="218.68" height="72.33" as="geometry" />
        </mxCell>
        <mxCell id="zmRX58M7laVgkmosru7D-34" value="" style="group" parent="1" vertex="1" connectable="0">
          <mxGeometry x="-982" y="256" width="891" height="150" as="geometry" />
        </mxCell>
        <mxCell id="zmRX58M7laVgkmosru7D-19" value="Local" style="rounded=1;whiteSpace=wrap;html=1;labelPosition=center;verticalLabelPosition=top;align=center;verticalAlign=bottom;fontStyle=1;fontSize=13;strokeWidth=2;fillColor=#fefff0;strokeColor=#6B9454;fontColor=#6B9454;" parent="zmRX58M7laVgkmosru7D-34" vertex="1">
          <mxGeometry width="565" height="150" as="geometry" />
        </mxCell>
        <mxCell id="zmRX58M7laVgkmosru7D-20" style="edgeStyle=orthogonalEdgeStyle;rounded=0;orthogonalLoop=1;jettySize=auto;html=1;exitX=0;exitY=0.75;exitDx=0;exitDy=0;entryX=1;entryY=0.75;entryDx=0;entryDy=0;strokeWidth=2;endArrow=block;endFill=1;" parent="zmRX58M7laVgkmosru7D-34" source="zmRX58M7laVgkmosru7D-21" target="zmRX58M7laVgkmosru7D-19" edge="1">
          <mxGeometry relative="1" as="geometry" />
        </mxCell>
        <mxCell id="zmRX58M7laVgkmosru7D-33" value="git pull" style="edgeLabel;html=1;align=center;verticalAlign=middle;resizable=0;points=[];fontStyle=3" parent="zmRX58M7laVgkmosru7D-20" vertex="1" connectable="0">
          <mxGeometry x="-0.0884" y="-1" relative="1" as="geometry">
            <mxPoint x="-1" y="-12" as="offset" />
          </mxGeometry>
        </mxCell>
        <mxCell id="zmRX58M7laVgkmosru7D-21" value="Remote" style="rounded=1;whiteSpace=wrap;html=1;labelPosition=center;verticalLabelPosition=top;align=center;verticalAlign=bottom;fontStyle=1;fontSize=13;strokeWidth=2;fillColor=#dae8fc;strokeColor=#6c8ebf;fontColor=#6C8EBF;" parent="zmRX58M7laVgkmosru7D-34" vertex="1">
          <mxGeometry x="641" width="250" height="150" as="geometry" />
        </mxCell>
        <mxCell id="zmRX58M7laVgkmosru7D-22" style="edgeStyle=orthogonalEdgeStyle;rounded=0;orthogonalLoop=1;jettySize=auto;html=1;exitX=1;exitY=0.25;exitDx=0;exitDy=0;entryX=0;entryY=0.25;entryDx=0;entryDy=0;strokeWidth=2;endArrow=block;endFill=1;" parent="zmRX58M7laVgkmosru7D-34" source="zmRX58M7laVgkmosru7D-19" target="zmRX58M7laVgkmosru7D-21" edge="1">
          <mxGeometry relative="1" as="geometry" />
        </mxCell>
        <mxCell id="zmRX58M7laVgkmosru7D-32" value="git push" style="edgeLabel;html=1;align=center;verticalAlign=middle;resizable=0;points=[];fontStyle=3" parent="zmRX58M7laVgkmosru7D-22" vertex="1" connectable="0">
          <mxGeometry x="-0.0183" relative="1" as="geometry">
            <mxPoint x="-1" y="-12" as="offset" />
          </mxGeometry>
        </mxCell>
        <mxCell id="zmRX58M7laVgkmosru7D-23" value="Working directory" style="rounded=1;whiteSpace=wrap;html=1;strokeColor=#6c8ebf;glass=0;fillStyle=solid;fillColor=#dae8fc;fontStyle=1" parent="zmRX58M7laVgkmosru7D-34" vertex="1">
          <mxGeometry x="23" y="45" width="120" height="60" as="geometry" />
        </mxCell>
        <mxCell id="zmRX58M7laVgkmosru7D-24" value="Staging area" style="rounded=1;whiteSpace=wrap;html=1;fillColor=#ffe6cc;strokeColor=#d79b00;fontStyle=1" parent="zmRX58M7laVgkmosru7D-34" vertex="1">
          <mxGeometry x="220" y="45" width="120" height="60" as="geometry" />
        </mxCell>
        <mxCell id="zmRX58M7laVgkmosru7D-25" style="edgeStyle=orthogonalEdgeStyle;rounded=0;orthogonalLoop=1;jettySize=auto;html=1;exitX=1;exitY=0.5;exitDx=0;exitDy=0;entryX=0;entryY=0.5;entryDx=0;entryDy=0;endArrow=block;endFill=1;strokeWidth=2;" parent="zmRX58M7laVgkmosru7D-34" source="zmRX58M7laVgkmosru7D-23" target="zmRX58M7laVgkmosru7D-24" edge="1">
          <mxGeometry relative="1" as="geometry" />
        </mxCell>
        <mxCell id="zmRX58M7laVgkmosru7D-29" value="git add" style="edgeLabel;html=1;align=center;verticalAlign=middle;resizable=0;points=[];fontStyle=3;fontSize=12;labelBackgroundColor=none;" parent="zmRX58M7laVgkmosru7D-25" vertex="1" connectable="0">
          <mxGeometry x="0.2396" y="-1" relative="1" as="geometry">
            <mxPoint x="-13" y="-14" as="offset" />
          </mxGeometry>
        </mxCell>
        <mxCell id="zmRX58M7laVgkmosru7D-26" value="Repository" style="rounded=1;whiteSpace=wrap;html=1;fillColor=#d5e8d4;strokeColor=#82b366;fontStyle=1" parent="zmRX58M7laVgkmosru7D-34" vertex="1">
          <mxGeometry x="416" y="45" width="120" height="60" as="geometry" />
        </mxCell>
        <mxCell id="zmRX58M7laVgkmosru7D-27" style="edgeStyle=orthogonalEdgeStyle;rounded=0;orthogonalLoop=1;jettySize=auto;html=1;exitX=1;exitY=0.5;exitDx=0;exitDy=0;entryX=0;entryY=0.5;entryDx=0;entryDy=0;endArrow=block;endFill=1;strokeWidth=2;" parent="zmRX58M7laVgkmosru7D-34" source="zmRX58M7laVgkmosru7D-24" target="zmRX58M7laVgkmosru7D-26" edge="1">
          <mxGeometry relative="1" as="geometry" />
        </mxCell>
        <mxCell id="zmRX58M7laVgkmosru7D-31" value="git commit" style="edgeLabel;html=1;align=center;verticalAlign=middle;resizable=0;points=[];fontStyle=3;labelBackgroundColor=none;" parent="zmRX58M7laVgkmosru7D-27" vertex="1" connectable="0">
          <mxGeometry x="-0.6842" y="-2" relative="1" as="geometry">
            <mxPoint x="26" y="-14" as="offset" />
          </mxGeometry>
        </mxCell>
        <mxCell id="zmRX58M7laVgkmosru7D-28" value="" style="shape=image;verticalLabelPosition=bottom;labelBackgroundColor=default;verticalAlign=top;aspect=fixed;imageAspect=0;image=data:image/jpeg,/9j/4AAQSkZJRgABAQAAAQABAAD/2wCEAAkGBxMSEhUTExIWFhUXGCAXFxYYGBoYFxgaFx4XGxcYGxcaHyghGRomHhcXITEhJSkrLi4uHh8zOjMsNygtMCsBCgoKDg0OGBAQGy0mICUtKy0tLS0tLS0tLS0uLS0vLS0tLS0tLS0tLy0rLS0tLS0tLS0tLS0tLS0tKy0tMS0rLf/AABEIAIEBhgMBIgACEQEDEQH/xAAcAAEAAgIDAQAAAAAAAAAAAAAABwgFBgECBAP/xABTEAABAwIDAwUIChECBQUAAAABAAIDBBEFEiEGBzETQVFhcQgUIjWBkaGyMjRCcnN0orHR8BUXI1JTVGKCg5KTs8HCw9LhM2MWJCWj4xhDVaTT/8QAGQEBAAMBAQAAAAAAAAAAAAAAAAECAwQF/8QAJBEBAAICAgEEAgMAAAAAAAAAAAECAxEhMRIEE0FRYZEigcH/2gAMAwEAAhEDEQA/AJxREQEREGP2hxMUtLNUHXko3Pt0loNh5TYeVQTh++3EGEGWOCUc4yuYeuzgSB2kFSnvgeRhNTbnAB7C4XVYVnedJhZjZHelQ1xbGXchMdBHIQA49DZPYu7ND1LeVS0hZwbYV4hEArJhG0WDQ+xtzDN7L06JGT7NLZulaOJA7SviMQhvblY79Gdv0qndTO6Q3ke556XuLj8q6+HJt6Ap9yDS6LJWng4HsN10q6pkTHSSPaxjRdznENaAOJJOgCpxTTvjN43uYelji0+iy9tfj1VPG2KaolkY03ax7y4A9OvE9qj3INJq2o3108RLKOM1DuGdxLIu0aZn83QD0rAbM74KyaugjnbCIZJGxuDGEEcocrSHFx4OLSeq6iNffD3WliI5pGEdocP8KPOZk0uUi4C5WqBERAREQEREBERAREQEREBERAREQEREBERAREQEREBERAREQEREBERAREQEREBERBqW9WphZhdSJn5Q9hYzS5Mh1YAO0eQXKq2FIW+zaM1NeYA77lTeABfQyG2d3bwb1WPSo9WN53KYERcKiXKJ9fr9dU+dARFx8yDlejDahsc0UjmlzWSMe5g0Lg1wJbfmJAt1Lz/X6/XRFIuFgWMRVkDKiF2aN4uOkHnaRzOBuCF71Am4HaIx1L6Fx8CYGSMX4SMF3gDrYCfzetT2t4ncKiIikEREBERAREQEREBERAREQEREBERAREQEREBERAREQEREBERAREQEREBERAREQU1r6kyyySnjJI557XuLj86+AHMvtXQcnLJHzse5h/NcR/Are9z2zjKmodUSDMyAjK08DIbkEjnsBftsua063Mr1r5Tp8tnd1tVUMEkrhA06gEXfbpI4C/1sth+0yz8af+qz6FLlPEDdztGtFysdTbQ08s/e/JPif7gvaGh3RoDcXGouFSPOY3w6fbrHGt67RZJubd7mqv2tH0hfAbnZvxgfqjy+6UyWt6EWXvWhf2afSIotzbj7KqI7Gj6V6PtNM/G3/qs+hSqvNiuOQ0lg+J8h0zlrQWszagEkgXPMP8K1LXt9E4q9RG0I7S7sKqmY6SM8uxupDRZ4HvfdLQx9SrcPMckbJYjdjxceXq5ufTmsoC3u7OtpapssbQI5wXWA0bI0jMOjW4PnWkTMT4z2wvSNeUMPu6mLMUo3A2+7AeR12n0Eq16qbu+bfE6If77fnVsl0U6YSIiK6BEWn709rfsbQukZblpDycI6HG5LrdDQCe2w50GO3hb1KbDSYYwJ6kcYwbNZ79w4H8nj2KF8W3t4rOT/AMwIh97E0NAvzXN3ecrSZ5nPc57iXOcS5zjqSSbkk9JK9mCYJUVknJU0TpH9DRwHSTwA6yg97ttcRJv37Pf4R3zL30O8zFYiC2tkNuZ+V4+UFnqbcdijhdxp2HodISfkNcPSvlW7k8VjF2thl95J/eGoJE3Pbx6vEpn09RGw5I+U5ZgLeBa0Nc3gScxNxbhwUpVdUyJjpJHBjGAuc5xsGgcSSow3D7KT0UVS+pidFJI9rA11r5WAm4tzEvPmWY33skOET8nfQsL7feBwzeTpQYqbfphwlyCOdzPwoaAO3KTm9CkXB8VhqoWTwPD43i7XD0gjiCDoQdQVSlWJ7nGOQUM5dfIZvAvw0aA+3lsglpFqu83aCWgw+Wpgy8oxzAM4u3wntadARzFQp9vPE/vab9m7+9ToWVRatuz2glr8PiqZw0SPLwcgIb4L3NGhJ5gtpUCDdp99dVTVdRTspoC2KV0bS7PchpIBNncdFk93W9qpxCtZTS08LGua45mZ8wLRccSQob3g+M634xJ6xWwbi/G8XvH+qki0a8WN1pgp5pgATHG54B4EtaSAfMvasRtf7Rq/gJPUckiEPt+1n4rT/wDc/uUh7pNv5sW755aKOPkeTy5M2vKcpe+Ynhk9Kq+pw7mXjX/of66Cc0REBERAWlb1ds5cKpo5oo2SOfLydnk2AyudfQi50W6qI+6R9o0/xj+R6DVft+1n4rT/APc/uU1bE426toYKp7WsdK25a25aCCW6X1tpdU4Vs90Xiej94fXeg3BERAREQdJZWtF3ODR0k2HnK8gxeAmzZA4jmZd5+TdK9jczT3vyrraGzPB/OcdPJdcF1S7g2KPrcXSH9UZR8pAdizPvZT2RSf2rj7LN/Bzfsn/QuRRzH2dQR8GxjR8vOfSuW4b0zTHtfb1QAgrJvMw/kcSqLNc1sr+WbmaWk8pq7Q/lZlv24mQd7VLfdCYO8hYANe1pWw72tge/KcTQZ31EANmlxcZGcXMAJ9lfUdJ051FG7HaVtDVkTHLFKOTeSD4DgfBcegA3B7epc+avE6a4rRFo2n/E43uo6hrCQ/IS23HQX08xUcYTLLPWQuLnPeZGnMdTZpBPyQVJtNPlIc2xBHNwI7f4riKGBjnPigayR3snhtjrqeCyrevjG56d1LzTy43t2m9k7t/iV0XAH8OZY8cry3KcozvbJwtz/fZujrusO5mUxDIj6PnUf7ZPlZVzsLnBj3Nfl9y4ZQGm3Pa1vJ1Lf7fW3WuZYYZA0TQtkyexJbe3Vqr47RzElbeE+WtvDsnG5uHx5gRckt96SSCOgW1Udb+JByVI22pkeR2BoB9YKWKibORpYDQCyr1vX2gbV1mWNwdHA3k2uHBziSZCOkcG+RaRMTfjqIc+Wf4zvuZ243Q0ufFIHkOLYQ+V2VpdwaWt0A++cD5FY/7LN/Bzfsn/AELQNzuxJpqUzzh8c0+uUOcxzYx7AOA5zcusdRcKQXYd0SzDsff1gQuysahxuG4sw+5lHbFJ/ajsYgFs0gZfhnBZ64CGjlHsKh36RjHD5IafSgNS3iIpB1ZozbsOYHzhWHrhma8XY4OHS0gjzhV87ozFS+shpwfBiizn30hPEdQaPOp5o2jOSafk329nZhuOjM0386rBvolzYzV9RY3zRRj57qBpQCt3u82Ujw2jZEGjlXAOmfYXc88QTzgXsP8AKq/sNTcpiNIziDPHcdQcCfQFcdARRdt5vd+xtY+l7z5XK1pz8rkvmANsuQ8L9K13/wBQZ/8Ajv8A7H/iQTmvDjdfBBA+Spc1sIFnl4u0h2liOe97WURUO/zlJWR/Y+we8Nvy97ZiBe3J68eC3HfX4oqPzee3umoNEmwfZV0vKd8lovfkw9+Ts4XA6rqW9kaujkpm94Fne7CWNDBZoI1It0+FcnnuqbKeN25tszXc2lR1f+23nQZ3fnjVMcMmgE8Zmc5low8F/gvaT4I1GmqrUiILA7pNucPpMMhhnqWMka55LSDcZnuI4DoIUm7P7RU1a1z6aZsrWnK4i+hIuOKpirAdzX7Wq/hW+qgh/eF4zrfjEnrFbBuL8bxe8f6q1/eD4zrfjEnrFYzB8WmpZRNBIY5G3AcLXF9DxSRdZYja/wBo1fwEnqOVYvtn4t+PSeZn9q+dVvHxSRjo31sjmvaWuFmahwsR7HoQaopw7mXjX/of66g9Th3MvGv/AEP9dBKGI7d4dTyOimq42SMNnNJNweNjp1ph23eHTyNiirI3yPNmtBNyegacVW/e744rPfj1GLrum8b0fwn8rlItqsBi+2lBSyGKeqjjkABLXE3seHMs+qvb9/G8vvGeqgnqk3g4ZLIyOOsic97gxrQTcucbNA04kkBaV3SPtGn+MfyPUKbDeMqH41D+8Ypr7pH2jT/GP5HqBXhWQ2G25oKDCKMVFQ1r8h+5t8N+r3+5bcjyqt6+1NSvkNo2OeehrS4+YILFHfvh2a3JVVr+yyR27f8AUv6Fuey+2lFiAPe04c4C5jN2vA6cp1t1qoVTSvjNpGOYehzS0+YrvhtfJTysmieWSMcHNcOII/hzW50F2kWB2H2gGIUMNSNC9tnjoe0lrx2XBt1WXKDOoiICxe0G0NNQxiSqlEbHOygkOJJ42AaCToDzLKLH45hsNTHyU8LZWOIu1wvbrHQR0hNbRM6jbrguPU1W3PTzMkHHwTqO1p1HlC1HbvdZTV5dNGeQqDxcBdjz+Wzp/KFj2rRtq9npcDqopqeZzaaRwY2VwdI6l8LM5mUEXY4XuOcA89ry/sltAyupmTM0J0c2xFj0i4BLTxB5wU1wb5Q9R0+O4P8AczB3zTNGgaTK0D8hzbSM48CLdSylNvhpgctRTzxPHsho6x7CQ4eUKZ1HO+jaJlHTNY2KJ88xIYXsa8RtHspMrgbngAOnXmWVsVJ5lrXLaOnji3o4YRrO9vUYZebsaV5Ttzg9/bUmW+bk8lRyd73vlycL83DqUDiPrd505PrPnKw9qv5ax6i8LCu3n4X+MOPZDN/Fix1TveoBpGyeVx4ANy3v7439Cgp0X5TvOp/3H7Sx1MTqaSKJtRC0HMxjG8rHoMxAA8IGwPaDzq1cNJVnPdr+IYpjeKjkqWjfTwONnOddjiOfNI+2UdTBfrK2fYTdDDSOZPVubPM3VrB/osI4EA6vI5iQBwNgVJ6LorStemVrTbsREVlRERAVT98cZbjNYD98w/rRxkfOrYKtfdCYXyWJCYDSeJpv0uj8A/JDEGobv5wzEqNx/DsH6zg3+KuGqPwSuY5r2mzmkOaRxBGoPnVy9l8bjraWKpjItI0Ej713umnrBuEEA77cFqZMWlfHTzPaWR2c2NzgbNAOoFuIUbVlHJE7LLG+N1r5XtLTbpsRwV3FW3uifGjPizPXlQR3gvtiH4VnrBWc32eKKj8z1mqseC+2IfhWesFZzfZ4oqPzPWanwKrKync/xh2Eua4AgzvBB1BBay4IVa1ZbuevFR+Hf80aDpvpwOmiwmZ8dPExwdGA5rGtI8No0IHQSq2K0m/XxPP76P8AeMVW1Miym5bA6aXCYXyU8T3F0l3OY0uNpHWuSNbKRqHD4oQRFEyME3IY0NBPSbLSdxfieD30n7x639QKebwvGdb8Yk9YrzbLbPS4hUNpoSwPcCQXkhvgi51AJ9C9O8HxnW/GJPWK2DcX43i94/1UkZI7iMS/C0v7ST/8158R3KYhDFJK6SmLY2Oe6z33s0EmwMfHRWZWI2v9o1fwEnqOSRTNTh3MvGv/AEP9dQepw7mXjX/of66CP97vjis9+PUYuu6bxvR/CfyuXbe744rPfj1GLrum8b0fwn8rlPyLaqr2/fxvL7xnqq0Kq9v38by+8Zz/AJI8ygazsN4yofjUP7ximvukfaNP8Y/keoU2G8ZUPxqH94xTX3SPtGn+MfyPQV4Vtd1NHGzC6QsY1pdEHOIABcTqSTzlVKVvN2Piqi+Aagxe+XZ+Kqw2Z7m/dIG8rG4eyGX2Qvzgi+nZ0Kq6uJt/IG4bWE8OQf6WkKnaCxHc4VRdQzxngye4/Pa2/qrhfHuax/ytUf8Aeb6v+UQTEiIgIiIMbtHgsdbTSU0vsZG2uOLT7lw6wbFV5nqcQwOoeyTlC8RiOnlzu5Esa4uFm2LZG6uuw2LbmxCswvNX0EU7CyaNkjDxa9ocPMURraEn755vCaHN/wBK7ZDAcxl08FzOUsGcfCUd7UbSzV8okncSWsDbEgtBOry0ADK0nm1OnEqxkm7PCi7N3lGOoFwb+qHW9ChjfNhMFLXtjp4mRM5FrsrAACS59z26BVtvUpiGu4vgXIUdFUFxLqrlTl0yhsZjDLW1JOZxOvRoOfI0dHGcEqJSxplbWMa1+mYNLG3be17alZDbs/8AS8E+Bm6PvoF5qAf9AqePt5nR+Daq6iJ/pLDYHgffFPWygnPTRslDdLOaXZZL9jfC06D0rZtxkhGLMA4OhkB6xZp+doXy3be1cZ+IO+aRdtyHjaL4OT1UiOhZVERaIEREBERAUe76tknV9DniF5qc8o0W1e23hsHXaxHWLc6kJEFHSFs2xW3VXhbiYHAscbvifcscRz2B8F1tLhTJvE3OR1b31FG4QzO8J8Z/0nu1uRb2DiePEdShfF9hMRpjaWjlHW0co39ZlwgkqPugn28LD2l3SJyB5jGfnUbbfbWvxSpFQ+JsZEYjDWku0aXG5J5/CKwkmHzN0dFID1scP4L10WztXMQI6WZ5PC0bvnsg+GC+2IfhWesFZzfX4oqPzfWaow2J3MVr5WS1ZFOxrg/LcPkdYg2s0kN8pv1KWd7OGy1OFzxQxmSQ5SGN1Js4E2HOUFTFZbuevFZ+Hf8AMxQd/wAAYp+IVH7MqftyOEz0uHGOoifE/lnuyvFjYhljbo0KD7b7adz8HqcouWljj2NkYXHyC5VVldvEaJk8T4ZBdkjSxw6Q4WKq/tputraGR3JxPnp73ZKwZjboewatcOyx5uoNo3S706ehpe9Ktr2hjnOjkaMws83LXN4g3LjcdPNbWYdktr6XEmyPpnOIjIa7M0t1IuLAqo5wqe+XkJb9HJuv5rKfe55wuaCmqeWhkjzyNLc7S3MA03IupELbwvGdb8Yk9YrYNxfjeL3j/VXG22xOIy4hVyR0U7mOne5rgwkOBcSCCOayze57ZKup8TilmpJo4w113uYQ0XGmpUSLErEbX+0av4CT1HLLrGbTQOko6ljGlznQva1o4klrgAPKokUvU4dzLxr/AND/AF1Gn/AGJ/iFR+zKl7uftn6qk7875p5Ic/JZM7cubLy2a1+jMPOpEY75IHMxiqzAjM5rm35wWN17NCtd2YxY0lXBUhubkpA/LwuAdRfrF1P2+Tdw/EMtTSgGoY3K5hIHKNGosToHC54nUKAK7Z+qhcWy00zCOOaNw9NrILDP33YWGZgZi618gj1v0XJy+lQVt/tMMSrX1IjMbXANDS7MbNFgSbDU8bc3WsZRYJUzENip5XkmwyscdfMtwi3QYl3tJUPiyuaAWQDwpX3IB0abNsCTrrpwQa3sN4yofjUP7ximvukfaNP8Y/keo02O2HxGOvo3vop2sZURPc4sIDWte0kk9AAKlrfzgtRV0cDKeF8rmz5nNYLkDI8Xt2kIK0qdN3u+Gjp6SGlqY5IzCwMztGdrgOBsNQeqx7VH+AbssQnqI4pKaaFjiQ6VzDlYACbm9uiy+G0e7jEaNxD6Z72A2EkQztcOY+Dq3sIBQb9vR3t09VSOpaMPdyukkjm5QGggloB1JNrKFF6xhk17cjJfhbI6/mst12E3WVlbKx00T4KYEF73jK5w52sadSTwvaw9BCXdwuGmHCmvcLGaR0moscujG+Q5LjqK5W/0dMyKNkbGhrGNDWgcAGiwCIPsiIgIiIC6vkA1JsvhXVOQacTwWEkeXG5JPD51tjxTbly5vUxjnxjtlpcTaOAJ+ZV934z58RabW+4N9Z6lfaPF+9IHTcjJLY2DI23cS48T0N6SoXqcMr8Xq3SugdHnsA54LI42DRrQXAF1hfhxN+F1ObHER41jcqYM17T5Xnh320lJw7BxzNhltoPvor8OwLzUkh+wk7eY1rLiw/BhZze7QMpo8Op2HSKKRvCxNjEM3lIJ6lhaWB32Dnfbwe/W83QxoJ85AWNq6vMfhtS+6Vn7n/Zfbd/KRT4sBz0Tr/K+kr6bm5smKxO/25B8lerc7CyWargfwlp8tuctzWdbszArG1GztfhdU2WOMycm67JGNL2uHCzmt1bcHUFK0nxrbW4+Uzf+Vq71Px+lk48VaeLSOzrXsina72JutH2Wxvv2ATchJCb5SyRp0It7EkDMzXQ2HP0LLt8v1+vlXVOCto3Djj1WSk6ty2VF4MNqy7wXcQOPSveua1ZrOpd+PJF6+UCIiquIiICIiDo6Jp4tB8gXYC3BcogIiICIiAiIg65BxsLrsiICIiAiIgIiIC4c0HiLrlEHVrAOAA7F2REBERAREQdeTF72F+xdkRAREQEREBERB5a+mzt0tccL+n5lhHxlpsRbhzHp+vatlXSWJrhYi62x5prxPTlz+m9yfKO2uD6eY9P17Fiq2MNd1ceB07FtcmFtPAkelYvEMCkcbtIIt0kH6+VduHPTy7cN/TZI+EVYzsDLVVDpqmsLmuvkDWWc1gJswE6NsOex6VvNPhsDaI04ibyIaYzHY2IPG/Pe5v031WUqcGmyt8HgDfXpsurcLl5MjIb5r2uegc6tFcMcxrmeeS85raiYnj8Izod3j4Kls9JVmPIc3hMJcG+6bmFgQQSNVvtJHmeO250PCyyNJg83hXbbwbDXj5F9qHApQ4OdlHVmJPDqUxbDji3jJaubJrcT+gfRzFAOr0FZWPChzknsXrgpms4Dy8SuW2esdNKekvPfDy4bRlvhO49HR/lZBEXLa02ncvRx44pXUCIiquIiICIiAiIgIiICIiAiIgIiICIiAiIgIiICIiAiIgIiICIiAiIgIiICIiAiIgIiICIiAiIgIiICIiAiIgIiICIiAiIgIiICIiAiIgIiICIiAiIgIiICIiAiIgIiICIiAiIgIiICIiD/2Q==;" parent="zmRX58M7laVgkmosru7D-34" vertex="1">
          <mxGeometry x="659" y="37" width="218.68" height="72.33" as="geometry" />
        </mxCell>
        <mxCell id="9LSZfTrqtyLkbAQiyzq_-7" value="" style="group" vertex="1" connectable="0" parent="1">
          <mxGeometry x="-982" y="435" width="565" height="150" as="geometry" />
        </mxCell>
        <mxCell id="zmRX58M7laVgkmosru7D-37" value="Local" style="rounded=1;whiteSpace=wrap;html=1;labelPosition=center;verticalLabelPosition=top;align=center;verticalAlign=bottom;fontStyle=1;fontSize=13;strokeWidth=2;fillColor=#fefff0;strokeColor=#6B9454;fontColor=#6B9454;" parent="9LSZfTrqtyLkbAQiyzq_-7" vertex="1">
          <mxGeometry width="565" height="150" as="geometry" />
        </mxCell>
        <mxCell id="zmRX58M7laVgkmosru7D-43" value="Working directory" style="rounded=1;whiteSpace=wrap;html=1;strokeColor=#6c8ebf;glass=0;fillStyle=solid;fillColor=#dae8fc;fontStyle=1" parent="9LSZfTrqtyLkbAQiyzq_-7" vertex="1">
          <mxGeometry x="23" y="67" width="120" height="60" as="geometry" />
        </mxCell>
        <mxCell id="zmRX58M7laVgkmosru7D-44" value="Staging area" style="rounded=1;whiteSpace=wrap;html=1;fillColor=#ffe6cc;strokeColor=#d79b00;fontStyle=1" parent="9LSZfTrqtyLkbAQiyzq_-7" vertex="1">
          <mxGeometry x="220" y="67" width="120" height="60" as="geometry" />
        </mxCell>
        <mxCell id="zmRX58M7laVgkmosru7D-45" style="edgeStyle=orthogonalEdgeStyle;rounded=0;orthogonalLoop=1;jettySize=auto;html=1;exitX=1;exitY=0.5;exitDx=0;exitDy=0;entryX=0;entryY=0.5;entryDx=0;entryDy=0;endArrow=block;endFill=1;strokeWidth=2;" parent="9LSZfTrqtyLkbAQiyzq_-7" source="zmRX58M7laVgkmosru7D-43" target="zmRX58M7laVgkmosru7D-44" edge="1">
          <mxGeometry relative="1" as="geometry" />
        </mxCell>
        <mxCell id="zmRX58M7laVgkmosru7D-46" value="git add" style="edgeLabel;html=1;align=center;verticalAlign=middle;resizable=0;points=[];fontStyle=3;fontSize=12;labelBackgroundColor=none;" parent="zmRX58M7laVgkmosru7D-45" vertex="1" connectable="0">
          <mxGeometry x="0.2396" y="-1" relative="1" as="geometry">
            <mxPoint x="-13" y="-14" as="offset" />
          </mxGeometry>
        </mxCell>
        <mxCell id="zmRX58M7laVgkmosru7D-47" value="Repository" style="rounded=1;whiteSpace=wrap;html=1;fillColor=#d5e8d4;strokeColor=#82b366;fontStyle=1" parent="9LSZfTrqtyLkbAQiyzq_-7" vertex="1">
          <mxGeometry x="416" y="67" width="120" height="60" as="geometry" />
        </mxCell>
        <mxCell id="zmRX58M7laVgkmosru7D-48" style="edgeStyle=orthogonalEdgeStyle;rounded=0;orthogonalLoop=1;jettySize=auto;html=1;exitX=1;exitY=0.5;exitDx=0;exitDy=0;entryX=0;entryY=0.5;entryDx=0;entryDy=0;endArrow=block;endFill=1;strokeWidth=2;" parent="9LSZfTrqtyLkbAQiyzq_-7" source="zmRX58M7laVgkmosru7D-44" target="zmRX58M7laVgkmosru7D-47" edge="1">
          <mxGeometry relative="1" as="geometry" />
        </mxCell>
        <mxCell id="zmRX58M7laVgkmosru7D-49" value="git commit" style="edgeLabel;html=1;align=center;verticalAlign=middle;resizable=0;points=[];fontStyle=3;labelBackgroundColor=none;fontSize=12;" parent="zmRX58M7laVgkmosru7D-48" vertex="1" connectable="0">
          <mxGeometry relative="1" as="geometry">
            <mxPoint x="-2" y="-16" as="offset" />
          </mxGeometry>
        </mxCell>
        <mxCell id="9LSZfTrqtyLkbAQiyzq_-2" value="Step 1: Stage changes" style="verticalLabelPosition=top;shadow=0;dashed=0;align=center;html=1;verticalAlign=bottom;strokeWidth=1;shape=mxgraph.mockup.markup.curlyBrace;whiteSpace=wrap;strokeColor=#000000;labelPosition=center;fontStyle=1;perimeterSpacing=0;horizontal=1;" vertex="1" parent="9LSZfTrqtyLkbAQiyzq_-7">
          <mxGeometry x="109" y="38.77999999999997" width="144" height="16.34" as="geometry" />
        </mxCell>
        <mxCell id="9LSZfTrqtyLkbAQiyzq_-6" value="Step 2: Commit changes" style="verticalLabelPosition=top;shadow=0;dashed=0;align=center;html=1;verticalAlign=bottom;strokeWidth=1;shape=mxgraph.mockup.markup.curlyBrace;whiteSpace=wrap;strokeColor=#000000;labelPosition=center;fontStyle=1;perimeterSpacing=0;horizontal=1;" vertex="1" parent="9LSZfTrqtyLkbAQiyzq_-7">
          <mxGeometry x="307" y="38.77999999999997" width="144" height="16.34" as="geometry" />
        </mxCell>
        <mxCell id="9LSZfTrqtyLkbAQiyzq_-11" style="edgeStyle=orthogonalEdgeStyle;rounded=0;orthogonalLoop=1;jettySize=auto;html=1;exitX=1;exitY=0.5;exitDx=0;exitDy=0;entryX=0;entryY=0.5;entryDx=0;entryDy=0;endArrow=blockThin;endFill=1;strokeWidth=1;" edge="1" parent="1" source="9LSZfTrqtyLkbAQiyzq_-8" target="9LSZfTrqtyLkbAQiyzq_-9">
          <mxGeometry relative="1" as="geometry" />
        </mxCell>
        <mxCell id="9LSZfTrqtyLkbAQiyzq_-20" style="edgeStyle=orthogonalEdgeStyle;rounded=1;orthogonalLoop=1;jettySize=auto;html=1;exitX=1;exitY=0.5;exitDx=0;exitDy=0;entryX=0;entryY=0.5;entryDx=0;entryDy=0;strokeColor=default;align=center;verticalAlign=middle;fontFamily=Helvetica;fontSize=11;fontColor=default;labelBackgroundColor=default;endArrow=blockThin;endFill=1;" edge="1" parent="1" source="9LSZfTrqtyLkbAQiyzq_-8" target="9LSZfTrqtyLkbAQiyzq_-13">
          <mxGeometry relative="1" as="geometry">
            <Array as="points">
              <mxPoint x="-968" y="679" />
              <mxPoint x="-968" y="714" />
            </Array>
          </mxGeometry>
        </mxCell>
        <mxCell id="9LSZfTrqtyLkbAQiyzq_-8" value="A" style="ellipse;whiteSpace=wrap;html=1;aspect=fixed;align=center;fillColor=#dae8fc;strokeColor=#6c8ebf;fontStyle=1;fontSize=11;" vertex="1" parent="1">
          <mxGeometry x="-1007" y="669" width="20" height="20" as="geometry" />
        </mxCell>
        <mxCell id="9LSZfTrqtyLkbAQiyzq_-12" style="edgeStyle=orthogonalEdgeStyle;rounded=0;orthogonalLoop=1;jettySize=auto;html=1;exitX=1;exitY=0.5;exitDx=0;exitDy=0;entryX=0;entryY=0.5;entryDx=0;entryDy=0;strokeColor=default;align=center;verticalAlign=middle;fontFamily=Helvetica;fontSize=11;fontColor=default;labelBackgroundColor=default;endArrow=blockThin;endFill=1;" edge="1" parent="1" source="9LSZfTrqtyLkbAQiyzq_-9" target="9LSZfTrqtyLkbAQiyzq_-10">
          <mxGeometry relative="1" as="geometry" />
        </mxCell>
        <mxCell id="9LSZfTrqtyLkbAQiyzq_-9" value="B" style="ellipse;whiteSpace=wrap;html=1;aspect=fixed;align=center;fillColor=#dae8fc;strokeColor=#6c8ebf;fontStyle=1;fontSize=11;" vertex="1" parent="1">
          <mxGeometry x="-945" y="669" width="20" height="20" as="geometry" />
        </mxCell>
        <mxCell id="9LSZfTrqtyLkbAQiyzq_-27" style="edgeStyle=orthogonalEdgeStyle;rounded=1;orthogonalLoop=1;jettySize=auto;html=1;exitX=1;exitY=0.5;exitDx=0;exitDy=0;strokeColor=default;align=center;verticalAlign=middle;fontFamily=Helvetica;fontSize=11;fontColor=default;labelBackgroundColor=default;endArrow=blockThin;endFill=1;entryX=0;entryY=0.5;entryDx=0;entryDy=0;" edge="1" parent="1" source="9LSZfTrqtyLkbAQiyzq_-10" target="9LSZfTrqtyLkbAQiyzq_-23">
          <mxGeometry relative="1" as="geometry">
            <mxPoint x="-809.2381068638393" y="679" as="targetPoint" />
          </mxGeometry>
        </mxCell>
        <mxCell id="9LSZfTrqtyLkbAQiyzq_-10" value="C" style="ellipse;whiteSpace=wrap;html=1;aspect=fixed;align=center;fillColor=#dae8fc;strokeColor=#6c8ebf;fontStyle=1;fontSize=11;" vertex="1" parent="1">
          <mxGeometry x="-882" y="669" width="20" height="20" as="geometry" />
        </mxCell>
        <mxCell id="9LSZfTrqtyLkbAQiyzq_-24" style="edgeStyle=orthogonalEdgeStyle;rounded=1;orthogonalLoop=1;jettySize=auto;html=1;exitX=1;exitY=0.5;exitDx=0;exitDy=0;entryX=0;entryY=0.5;entryDx=0;entryDy=0;strokeColor=default;align=center;verticalAlign=middle;fontFamily=Helvetica;fontSize=11;fontColor=default;labelBackgroundColor=default;endArrow=blockThin;endFill=1;" edge="1" parent="1" source="9LSZfTrqtyLkbAQiyzq_-13" target="9LSZfTrqtyLkbAQiyzq_-21">
          <mxGeometry relative="1" as="geometry" />
        </mxCell>
        <mxCell id="9LSZfTrqtyLkbAQiyzq_-13" value="D" style="ellipse;whiteSpace=wrap;html=1;aspect=fixed;align=center;fillColor=#ffe6cc;strokeColor=#d79b00;fontStyle=1;fontSize=11;" vertex="1" parent="1">
          <mxGeometry x="-945" y="704" width="20" height="20" as="geometry" />
        </mxCell>
        <mxCell id="9LSZfTrqtyLkbAQiyzq_-26" style="edgeStyle=orthogonalEdgeStyle;rounded=1;orthogonalLoop=1;jettySize=auto;html=1;exitX=1;exitY=0.5;exitDx=0;exitDy=0;entryX=0;entryY=0.5;entryDx=0;entryDy=0;strokeColor=default;align=center;verticalAlign=middle;fontFamily=Helvetica;fontSize=11;fontColor=default;labelBackgroundColor=default;endArrow=blockThin;endFill=1;" edge="1" parent="1" source="9LSZfTrqtyLkbAQiyzq_-21" target="9LSZfTrqtyLkbAQiyzq_-23">
          <mxGeometry relative="1" as="geometry">
            <Array as="points">
              <mxPoint x="-848" y="714" />
              <mxPoint x="-848" y="679" />
            </Array>
          </mxGeometry>
        </mxCell>
        <mxCell id="9LSZfTrqtyLkbAQiyzq_-21" value="E" style="ellipse;whiteSpace=wrap;html=1;aspect=fixed;align=center;fillColor=#ffe6cc;strokeColor=#d79b00;fontStyle=1;fontSize=11;" vertex="1" parent="1">
          <mxGeometry x="-882" y="704" width="20" height="20" as="geometry" />
        </mxCell>
        <mxCell id="9LSZfTrqtyLkbAQiyzq_-23" value="F" style="ellipse;whiteSpace=wrap;html=1;aspect=fixed;align=center;fillColor=#dae8fc;strokeColor=#6c8ebf;fontStyle=1;fontSize=11;" vertex="1" parent="1">
          <mxGeometry x="-820" y="669" width="20" height="20" as="geometry" />
        </mxCell>
      </root>
    </mxGraphModel>
  </diagram>
</mxfile>
